<mxfile host="app.diagrams.net" agent="Mozilla/5.0 (Windows NT 10.0; Win64; x64) AppleWebKit/537.36 (KHTML, like Gecko) Chrome/126.0.0.0 Safari/537.36 OPR/112.0.0.0" version="24.7.6">
  <diagram name="Page-1" id="_fCcqS8MBgnHIvKq2QEC">
    <mxGraphModel dx="792" dy="421" grid="1" gridSize="10" guides="1" tooltips="1" connect="1" arrows="1" fold="1" page="1" pageScale="1" pageWidth="850" pageHeight="1100" math="0" shadow="0">
      <root>
        <mxCell id="0" />
        <mxCell id="1" parent="0" />
        <mxCell id="aoAps44fISgYLeYxt4si-1" value="Actor" style="shape=umlActor;verticalLabelPosition=bottom;verticalAlign=top;html=1;outlineConnect=0;" vertex="1" parent="1">
          <mxGeometry x="610" y="210" width="30" height="60" as="geometry" />
        </mxCell>
        <mxCell id="aoAps44fISgYLeYxt4si-2" value="Manage Users" style="ellipse;whiteSpace=wrap;html=1;" vertex="1" parent="1">
          <mxGeometry x="390" y="140" width="120" height="80" as="geometry" />
        </mxCell>
        <mxCell id="aoAps44fISgYLeYxt4si-3" value="Generate Reports" style="ellipse;whiteSpace=wrap;html=1;" vertex="1" parent="1">
          <mxGeometry x="390" y="270" width="120" height="80" as="geometry" />
        </mxCell>
        <mxCell id="aoAps44fISgYLeYxt4si-7" value="" style="endArrow=classic;html=1;rounded=0;exitX=0.5;exitY=0.5;exitDx=0;exitDy=0;exitPerimeter=0;" edge="1" parent="1" source="aoAps44fISgYLeYxt4si-1" target="aoAps44fISgYLeYxt4si-2">
          <mxGeometry width="50" height="50" relative="1" as="geometry">
            <mxPoint x="380" y="250" as="sourcePoint" />
            <mxPoint x="430" y="200" as="targetPoint" />
          </mxGeometry>
        </mxCell>
        <mxCell id="aoAps44fISgYLeYxt4si-8" value="" style="endArrow=classic;html=1;rounded=0;exitX=0.5;exitY=0.5;exitDx=0;exitDy=0;exitPerimeter=0;entryX=0.992;entryY=0.396;entryDx=0;entryDy=0;entryPerimeter=0;" edge="1" parent="1" source="aoAps44fISgYLeYxt4si-1" target="aoAps44fISgYLeYxt4si-3">
          <mxGeometry width="50" height="50" relative="1" as="geometry">
            <mxPoint x="380" y="250" as="sourcePoint" />
            <mxPoint x="430" y="200" as="targetPoint" />
          </mxGeometry>
        </mxCell>
        <mxCell id="aoAps44fISgYLeYxt4si-15" value="" style="edgeStyle=orthogonalEdgeStyle;rounded=0;orthogonalLoop=1;jettySize=auto;html=1;" edge="1" parent="1" source="aoAps44fISgYLeYxt4si-9" target="aoAps44fISgYLeYxt4si-11">
          <mxGeometry relative="1" as="geometry" />
        </mxCell>
        <mxCell id="aoAps44fISgYLeYxt4si-9" value="Actor" style="shape=umlActor;verticalLabelPosition=bottom;verticalAlign=top;html=1;outlineConnect=0;" vertex="1" parent="1">
          <mxGeometry x="60" y="140" width="30" height="60" as="geometry" />
        </mxCell>
        <mxCell id="aoAps44fISgYLeYxt4si-17" value="" style="edgeStyle=orthogonalEdgeStyle;rounded=0;orthogonalLoop=1;jettySize=auto;html=1;" edge="1" parent="1" source="aoAps44fISgYLeYxt4si-10" target="aoAps44fISgYLeYxt4si-12">
          <mxGeometry relative="1" as="geometry" />
        </mxCell>
        <mxCell id="aoAps44fISgYLeYxt4si-10" value="Actor" style="shape=umlActor;verticalLabelPosition=bottom;verticalAlign=top;html=1;outlineConnect=0;" vertex="1" parent="1">
          <mxGeometry x="60" y="280" width="30" height="60" as="geometry" />
        </mxCell>
        <mxCell id="aoAps44fISgYLeYxt4si-11" value="Mark attendance" style="ellipse;whiteSpace=wrap;html=1;" vertex="1" parent="1">
          <mxGeometry x="200" y="130" width="120" height="80" as="geometry" />
        </mxCell>
        <mxCell id="aoAps44fISgYLeYxt4si-12" value="View attendance" style="ellipse;whiteSpace=wrap;html=1;" vertex="1" parent="1">
          <mxGeometry x="200" y="270" width="120" height="80" as="geometry" />
        </mxCell>
        <mxCell id="aoAps44fISgYLeYxt4si-16" value="" style="endArrow=classic;html=1;rounded=0;exitX=0.5;exitY=0.5;exitDx=0;exitDy=0;exitPerimeter=0;" edge="1" parent="1" source="aoAps44fISgYLeYxt4si-9" target="aoAps44fISgYLeYxt4si-12">
          <mxGeometry width="50" height="50" relative="1" as="geometry">
            <mxPoint x="380" y="250" as="sourcePoint" />
            <mxPoint x="430" y="200" as="targetPoint" />
          </mxGeometry>
        </mxCell>
        <mxCell id="aoAps44fISgYLeYxt4si-23" value="Admin" style="text;html=1;align=center;verticalAlign=middle;whiteSpace=wrap;rounded=0;" vertex="1" parent="1">
          <mxGeometry x="595" y="190" width="60" height="30" as="geometry" />
        </mxCell>
        <mxCell id="aoAps44fISgYLeYxt4si-24" value="Teacher" style="text;html=1;align=center;verticalAlign=middle;whiteSpace=wrap;rounded=0;" vertex="1" parent="1">
          <mxGeometry x="45" y="120" width="60" height="30" as="geometry" />
        </mxCell>
        <mxCell id="aoAps44fISgYLeYxt4si-25" value="Student" style="text;html=1;align=center;verticalAlign=middle;whiteSpace=wrap;rounded=0;" vertex="1" parent="1">
          <mxGeometry x="45" y="260" width="60" height="30" as="geometry" />
        </mxCell>
      </root>
    </mxGraphModel>
  </diagram>
</mxfile>
